<svg version="1.1" xmlns="http://www.w3.org/2000/svg" xmlns:xlink="http://www.w3.org/1999/xlink" height="100" width="100" x="0px" y="0px" viewBox="0 0 640 480" xml:space="preserve" preserveAspectRatio="xMidYMid meet" class="">
<rect x="0px" y="0px" width="100%" height="100%" fill="transparent"></rect>
<g class="logo-container-box logoContainerBox" transform="scale(1) translate(0,0)">
<g class="container_1" transform="scale(1) translate(39.900020599365234,35.100006103515625)" fill="#ffffff"><g>
	<path class="st0" d="M503,205.3c-10.1-7.1-22.2-19.5-27.8-27.5c-7.2-14,10.6-40-16.2-79.2c-26.8-39.2-66-37.1-83.3-35.7   s-41.8,0.8-41.8,0.8C315.3,64,284,32.2,280.3,28.4V28c0,0-0.1,0.1-0.2,0.2c-0.1-0.1-0.2-0.2-0.2-0.2v0.4   c-3.7,3.8-35.1,35.6-53.6,35.3c0,0-24.5,0.6-41.8-0.8c-17.3-1.4-56.5-3.5-83.3,35.7s-9,65.1-16.2,79.2c-5.6,8-17.7,20.4-27.8,27.5   c0,0,27.4,20.6,29.3,31.6c1.2,15-5.3,33.4,4.8,56.1c8.3,17.9,18.8,42.4,63.1,54.4c11.1,2.4,25.8,1.6,45.3,0.3   c21.4-2.6,35.1-2.3,47.4,6.9c8.5,6.4,17.2,10.3,33.1,27.2v-18.5c0,0-13.2-10.8-19.6-15.8c-10.5-8.3-16.7-16.9-52.7-14.4   s-62.6,4.9-83.7-15.5c-21-20.4-27.2-38.2-24-66.1S88,213.9,78.1,205.3c0,0,26.3-18.9,22.1-43.1s2.8-69.7,50.5-83.8   c0,0,8.3-4.8,34.2-2.1s56.7,4.8,72.4-10.9L280,46.7l22.9,18.7c15.7,15.7,46.4,13.6,72.4,10.9s34.2,2.1,34.2,2.1   c47.7,14.1,54.7,59.7,50.5,83.8c-4.2,24.2,22.1,43.1,22.1,43.1c-9.9,8.6-25.2,18.4-22.1,46.2c3.2,27.9-3,45.7-24,66.1   s-47.7,18-83.7,15.5s-42.1,6.1-52.7,14.4c-6.4,5-19.6,15.8-19.6,15.8v18.5c15.9-16.9,24.6-20.8,33.1-27.2   c12.3-9.2,25.9-9.6,47.4-6.9c19.5,1.3,34.2,2.2,45.3-0.3c44.3-12,54.8-36.6,63.1-54.4c10.1-22.7,3.6-41.1,4.8-56.1   C475.6,225.9,503,205.3,503,205.3z"></path>
	<path class="st0" d="M279.8,354.3l-1.5-1.6c-26.1-25.1-44.3-26.1-61.8-27.1c-4.8-0.3-11.1,0.3-18.4,1c-20.3,1.8-48,4.4-65.9-11.2   c-24.5-21.4-27.7-38.7-25.4-67.3c2.2-27.5-17.5-41.5-17.7-41.6l-1.5-1.1l2.7-2.8c13.5-14,13.5-14,14.4-33.6   c0.2-4.9,0.5-10.9,1-18.6c2.6-37.6,15.7-46.7,30.9-57.2c1.4-1,2.8-2,4.3-3c13.8-9.9,41-8.1,64.9-6.5c7.3,0.5,14.3,0.9,20.4,1   c0.1,0,0.3,0,0.4,0c23.2,0,49-24.6,51.9-27.4l1.4-1.4l1.4,1.3c2.9,2.8,29,27.8,52.4,27.5c5.8-0.1,12.2-0.4,19.1-0.8   c24.1-1.3,51.5-2.8,66.1,6.3l0.9,0.6c17.6,10.8,31.5,19.3,34.3,59.7c0.5,7.7,0.8,13.8,1,18.6c0.9,19.6,0.9,19.6,14.4,33.6l2.7,2.8   l-1.5,1.1c-0.2,0.1-19.9,14.2-17.7,41.6c2.3,28.6-0.9,46-25.4,67.3c-17.9,15.6-45.6,13.1-65.9,11.2c-7.3-0.7-13.5-1.2-18.4-1   c-16.9,0.9-36.1,2-62.2,27.1L279.8,354.3z M213.9,322.3c1,0,1.9,0,2.8,0.1c17.1,1,36.4,2,63,27.2c26.5-25.1,46.1-26.2,63.4-27.2   c5.1-0.3,11.4,0.3,18.8,1c20.8,1.9,46.7,4.2,63.5-10.5c23.5-20.5,26.5-37.2,24.3-64.7c-2-25.1,12.7-39.4,17.6-43.4l-0.2-0.2   c-14.2-14.7-14.3-15-15.3-35.7c-0.2-4.9-0.5-10.9-1-18.6c-2.7-38.7-15.3-46.5-32.8-57.2l-0.9-0.6c-13.8-8.5-40.6-7.1-64.3-5.8   c-6.9,0.4-13.4,0.7-19.2,0.8c-0.2,0-0.3,0-0.5,0c-22.8,0-46.8-21.3-53.3-27.5c-6.5,6.2-30.5,27.5-53.3,27.5c-0.2,0-0.3,0-0.5,0   c-6.2-0.1-13.1-0.5-20.5-1c-23.4-1.5-49.9-3.3-62.9,6c-1.5,1-2.9,2-4.3,3c-15.1,10.5-27,18.7-29.5,54.8c-0.5,7.7-0.8,13.7-1,18.6   c-1,20.7-1.1,21-15.3,35.7l-0.2,0.2c4.8,4,19.6,18.2,17.6,43.4c-2.2,27.5,0.9,44.2,24.3,64.7c16.9,14.7,42.7,12.4,63.5,10.5   C204,322.8,209.3,322.3,213.9,322.3z"></path>
</g></g><g class="containerBody" transform="scale(1) translate(-0.0000152587890625,15.112899780273438)"><g class="sampleIconBox" transform="scale(1) translate(0,0)"><g class="sampleIcons_1" transform="scale(1.0526315789473684) translate(254.47099995613098,130.59099185943606)" fill="#ffffff"><g><path d="M93.02,15.996H6.036V65.02v0.002H93.02h0.002V65.02V15.996H93.02z M42.972,41.031h4.169v1.462h-4.169V41.031z    M34.397,38.622h4.169v1.462h-4.169V38.622z M41.972,41.031v1.462h-23.71v-1.462H41.972z M33.398,40.084L33.398,40.084H18.262   v-1.463h15.136V40.084z M13.066,21.332h4.169v1.462h-4.169V21.332z M13.066,23.794h10.391v1.463H13.066V23.794z M13.066,26.257   h13.855v1.462H13.066V26.257z M13.066,28.719h10.391v1.463H13.066V28.719z M13.066,31.182h10.391v1.462H13.066V31.182z    M13.066,33.644h4.169v1.463h-4.169V33.644z M13.066,36.106h6.97v1.462h-6.97V36.106z M13.066,38.621h4.169v1.463h-4.169V38.621z    M13.066,41.031h4.169v1.462h-4.169V41.031z M13.066,43.493h4.169v1.463h-4.169V43.493z M13.066,45.956H46.28v1.462H13.066V45.956z    M13.066,48.418h4.169v1.463h-4.169V48.418z M13.066,50.881h20.331v1.463H13.066V50.881z M10.802,21.332L10.802,21.332h1.264v1.462   h-1.263h-0.001V21.332z M12.067,59.73L12.067,59.73h-1.264h-0.001v-1.463h0.001h1.263h0.001V59.73z M12.067,57.268L12.067,57.268   h-1.264h-0.001v-1.461h0.001h1.263h0.001V57.268z M12.067,54.807L12.067,54.807h-1.264h-0.001v-1.464h0.001h1.263h0.001V54.807z    M12.067,52.344L12.067,52.344h-1.264h-0.001v-1.463h0.001h1.263h0.001V52.344z M12.067,49.881L12.067,49.881h-1.264h-0.001v-1.463   h0.001h1.263h0.001V49.881z M12.067,47.418L12.067,47.418h-1.264h-0.001v-1.462h0.001h1.263h0.001V47.418z M12.067,44.956   L12.067,44.956h-1.264h-0.001v-1.463h0.001h1.263h0.001V44.956z M12.067,42.493L12.067,42.493h-1.264h-0.001v-1.462h0.001h1.263   h0.001V42.493z M12.067,40.031L12.067,40.031h-1.264h-0.001v-1.463h0.001h1.263h0.001V40.031z M12.067,37.568L12.067,37.568h-1.264   h-0.001v-1.462h0.001h1.263h0.001V37.568z M12.067,35.107h-1.264v-0.001h-0.001v-1.463h1.264v0.001h0.001V35.107z M12.067,32.644   L12.067,32.644h-1.264h-0.001v-1.462h0.001h1.263h0.001V32.644z M12.067,30.182L12.067,30.182h-1.264h-0.001v-1.463h0.001h1.263   h0.001V30.182z M12.067,27.719L12.067,27.719h-1.264h-0.001v-1.462h0.001h1.263h0.001V27.719z M12.067,25.257L12.067,25.257h-1.264   h-0.001v-1.463h0.001h1.263h0.001V25.257z M20.036,59.73h-6.97v-1.463h6.97V59.73z M21.592,57.268L21.592,57.268h-8.525h-0.001   v-1.461h0.001h8.524h0.001V57.268z M30.117,54.807H13.066v-1.464h17.051V54.807z M35.356,54.807L35.356,54.807h-4.169h-0.001   v-1.463h0.001h4.168h0.001V54.807z M46.281,49.881L46.281,49.881H18.262v-1.463H46.28h0.001V49.881z M51.439,44.956H18.262v-1.463   h33.177V44.956z M56.607,44.956h-4.168v-1.463h4.168V44.956z"></path><circle cx="49.528" cy="72.829" r="1.847"></circle><polygon points="12.066,33.643 10.802,33.643 10.802,35.106 10.803,35.106 10.803,35.107 12.067,35.107 12.067,33.644    12.066,33.644  "></polygon><polygon points="31.187,53.344 31.186,53.344 31.186,54.807 31.187,54.807 35.355,54.807 35.356,54.807 35.356,53.344    35.355,53.344  "></polygon><rect x="42.972" y="41.031" width="4.169" height="1.462"></rect><rect x="34.397" y="38.622" width="4.169" height="1.462"></rect><rect x="13.066" y="21.332" width="4.169" height="1.462"></rect><rect x="13.066" y="33.644" width="4.169" height="1.463"></rect><rect x="13.066" y="38.621" width="4.169" height="1.463"></rect><rect x="13.066" y="41.031" width="4.169" height="1.462"></rect><rect x="13.066" y="36.106" width="6.97" height="1.462"></rect><polygon points="18.262,40.084 33.397,40.084 33.398,40.084 33.398,38.621 18.262,38.621  "></polygon><rect x="18.262" y="41.031" width="23.71" height="1.462"></rect><rect x="13.066" y="43.493" width="4.169" height="1.463"></rect><rect x="13.066" y="48.418" width="4.169" height="1.463"></rect><rect x="52.439" y="43.493" width="4.168" height="1.463"></rect><rect x="18.262" y="43.493" width="33.177" height="1.463"></rect><rect x="13.066" y="45.956" width="33.214" height="1.462"></rect><polygon points="18.262,48.418 18.262,49.881 46.28,49.881 46.281,49.881 46.281,48.418 46.28,48.418  "></polygon><rect x="13.066" y="50.881" width="20.331" height="1.463"></rect><rect x="13.066" y="53.343" width="17.051" height="1.464"></rect><polygon points="13.067,55.807 13.066,55.807 13.066,57.268 13.067,57.268 21.591,57.268 21.592,57.268 21.592,55.807    21.591,55.807  "></polygon><rect x="13.066" y="58.268" width="6.97" height="1.463"></rect><rect x="13.066" y="23.794" width="10.391" height="1.463"></rect><rect x="13.066" y="26.257" width="13.855" height="1.462"></rect><rect x="13.066" y="28.719" width="10.391" height="1.463"></rect><rect x="13.066" y="31.182" width="10.391" height="1.462"></rect><polygon points="12.066,22.794 12.066,21.332 10.803,21.332 10.802,21.332 10.802,22.794 10.803,22.794  "></polygon><polygon points="10.803,23.794 10.802,23.794 10.802,25.257 10.803,25.257 12.066,25.257 12.067,25.257 12.067,23.794    12.066,23.794  "></polygon><polygon points="10.803,26.257 10.802,26.257 10.802,27.719 10.803,27.719 12.066,27.719 12.067,27.719 12.067,26.257    12.066,26.257  "></polygon><polygon points="10.803,28.719 10.802,28.719 10.802,30.182 10.803,30.182 12.066,30.182 12.067,30.182 12.067,28.719    12.066,28.719  "></polygon><polygon points="10.803,31.182 10.802,31.182 10.802,32.644 10.803,32.644 12.066,32.644 12.067,32.644 12.067,31.182    12.066,31.182  "></polygon><polygon points="10.803,36.106 10.802,36.106 10.802,37.568 10.803,37.568 12.066,37.568 12.067,37.568 12.067,36.106    12.066,36.106  "></polygon><polygon points="10.803,38.568 10.802,38.568 10.802,40.031 10.803,40.031 12.066,40.031 12.067,40.031 12.067,38.568    12.066,38.568  "></polygon><polygon points="10.803,41.031 10.802,41.031 10.802,42.493 10.803,42.493 12.066,42.493 12.067,42.493 12.067,41.031    12.066,41.031  "></polygon><polygon points="10.803,43.493 10.802,43.493 10.802,44.956 10.803,44.956 12.066,44.956 12.067,44.956 12.067,43.493    12.066,43.493  "></polygon><polygon points="10.803,45.956 10.802,45.956 10.802,47.418 10.803,47.418 12.066,47.418 12.067,47.418 12.067,45.956    12.066,45.956  "></polygon><polygon points="10.803,48.418 10.802,48.418 10.802,49.881 10.803,49.881 12.066,49.881 12.067,49.881 12.067,48.418    12.066,48.418  "></polygon><polygon points="10.803,50.881 10.802,50.881 10.802,52.344 10.803,52.344 12.066,52.344 12.067,52.344 12.067,50.881    12.066,50.881  "></polygon><polygon points="10.803,53.343 10.802,53.343 10.802,54.807 10.803,54.807 12.066,54.807 12.067,54.807 12.067,53.343    12.066,53.343  "></polygon><polygon points="10.803,55.807 10.802,55.807 10.802,57.268 10.803,57.268 12.066,57.268 12.067,57.268 12.067,55.807    12.066,55.807  "></polygon><polygon points="10.803,58.268 10.802,58.268 10.802,59.73 10.803,59.73 12.066,59.73 12.067,59.73 12.067,58.268 12.066,58.268     "></polygon><path d="M94.195,12.179h-43.88H48.82H4.939c-1.563,0-2.91,1.189-2.91,2.752v54.092v0.189v5.012v0.314   c0,1.563,1.347,2.877,2.91,2.877h35.146c-0.041,0.896-0.321,4.753-2.155,6.623c-1.445,1.473-3.453,2.854-2.669,3.563   c0.19,0.436,1.091,0.688,3.14,0.688c4.521,0,9.416,0,11.208,0c0.453,0,0.707,0,0.707,0c1.792,0,6.688,0,11.208,0   c2.334,0,3.149-0.382,3.158-0.953h-0.08v-0.188H64.52c-0.104-0.77-1.662-1.907-2.84-3.105c-1.834-1.87-2.113-5.727-2.154-6.623   H94.2c1.563,0,2.829-1.313,2.829-2.877v-0.314v-5.012v-0.189V14.933C97.027,13.368,95.76,12.179,94.195,12.179z M49.528,74.676   c-1.021,0-1.847-0.824-1.847-1.846s0.826-1.848,1.847-1.848c1.02,0,1.847,0.826,1.847,1.848   C51.376,73.852,50.548,74.676,49.528,74.676z M93.023,65.02h-0.002v0.002H93.02H6.036V65.02V15.996H93.02h0.002h0.002V65.02z"></path><rect x="93.021" y="15.996" width="0.002" height="49.023"></rect></g></g></g><g class="sampleTexts_1" transform="scale(1) translate(0.00000762939453125,0.000009155273431815658)"><g class="logo--name svgLogoName_1 logoNameBox" transform="scale(1) translate(247.5249960422516,299.48999938964846)" fill="#ffffff"><path d="M8.89-42.75L8.89-28.51L16.00-28.51L16.00-28.51Q17.47-28.51 18.53-29.53L18.53-29.53L18.53-29.53Q19.58-30.59 19.58-32.06L19.58-32.06L19.58-39.20L19.58-39.20Q19.58-40.68 18.53-41.70L18.53-41.70L18.53-41.70Q17.47-42.75 16.00-42.75L16.00-42.75L8.89-42.75ZM8.89-21.38L8.89 0L1.76 0L1.76-49.89L16.00-49.89L16.00-49.89Q20.43-49.89 23.55-46.72L23.55-46.72L23.55-46.72Q26.68-43.59 26.68-39.20L26.68-39.20L26.68-32.06L26.68-32.06Q26.68-27.63 23.55-24.50L23.55-24.50L23.55-24.50Q20.43-21.38 16.00-21.38L16.00-21.38L8.89-21.38ZM37.34-28.51L37.34-42.75L44.44-42.75L44.44-42.75Q45.91-42.75 46.97-41.70L46.97-41.70L46.97-41.70Q48.02-40.68 48.02-39.20L48.02-39.20L48.02-32.06L48.02-32.06Q48.02-30.59 46.97-29.53L46.97-29.53L46.97-29.53Q45.91-28.51 44.44-28.51L44.44-28.51L37.34-28.51ZM49.29 0L57.02 0L47.81-21.90L47.81-21.90Q51.05-22.99 53.05-25.73L53.05-25.73L53.05-25.73Q55.13-28.55 55.13-32.06L55.13-32.06L55.13-39.20L55.13-39.20Q55.13-43.59 52.00-46.72L52.00-46.72L52.00-46.72Q48.87-49.89 44.44-49.89L44.44-49.89L30.20-49.89L30.20 0L37.34 0L37.34-21.38L40.29-21.38L49.29 0ZM79.17-49.89L67.68-49.89L60.54 0L67.75 0L69.26-10.69L77.59-10.69L79.10 0L86.31 0L79.17-49.89ZM70.28-17.82L73.44-39.83L76.57-17.82L70.28-17.82ZM114.75-49.89L89.82-49.89L89.82-42.75L105.86-42.75L89.82-4.29L89.82 0L114.75 0L114.75-7.14L98.72-7.14L114.75-45.60L114.75-49.89ZM132.50 0L128.95 0L128.95 0Q124.52 0 121.39-3.13L121.39-3.13L121.39-3.13Q118.27-6.26 118.27-10.69L118.27-10.69L118.27-49.89L125.40-49.89L125.40-10.69L125.40-10.69Q125.40-9.21 126.42-8.16L126.42-8.16L126.42-8.16Q127.48-7.14 128.95-7.14L128.95-7.14L132.50-7.14L132.50-7.14Q133.98-7.14 135.04-8.16L135.04-8.16L135.04-8.16Q136.09-9.21 136.09-10.69L136.09-10.69L136.09-49.89L143.19-49.89L143.19-10.69L143.19-10.69Q143.19-6.26 140.06-3.13L140.06-3.13L140.06-3.13Q136.93 0 132.50 0L132.50 0Z"></path></g><g id="" class="logo--name svgSloganText_1 sloganBox" transform="scale(1) translate(320,326.4)" fill="red"><path d=""></path></g></g></g></g></svg>